<svg width="703" height="426" viewBox="0 0 703 426" fill="none" xmlns="http://www.w3.org/2000/svg">
<path d="M591.374 218.242C563.877 192.481 528.109 180.469 497.174 166.255C491.934 163.858 487.203 161.697 483.187 159.773C471.515 154.202 455.554 138.773 462.428 121.047C467.056 109.062 478.797 103.018 497.379 103.018C503.334 103.018 509.868 103.693 516.845 104.976C541.075 109.467 559.452 118.447 569.866 123.546C571.159 124.187 572.656 124.255 574.018 123.782C575.345 123.276 573.439 35.8643 574.018 34.5475L702.998 417.449C704.053 415.119 329.815 427.303 327.637 425.885C310.825 414.811 425.631 -75.3158 574.018 27.0523C567.28 27.0523 480.125 33.8723 473.591 34.5475C436.428 38.3289 399.197 48.1539 378.574 94.1047C365.71 122.702 365.744 154.911 378.608 178.14C392.357 203.495 414.886 214.84 443.405 229.155L447.08 231.012C467.669 241.208 492.342 252.552 508.575 260.014C532.567 271.493 541.45 291.886 535.936 304.175C527.054 323.994 507.418 328.349 473.454 318.795C443.473 310.725 415.805 287.936 408.08 281.149C406.922 280.136 405.391 279.664 403.826 279.866C402.294 280.069 400.933 280.947 400.082 282.196L363.124 338.411C361.728 340.538 362.035 343.34 363.872 345.096C383.032 363.429 398.653 374.098 425.708 387.299C443.915 396.178 470.562 401.513 497.004 401.513C524.638 401.513 592.122 395.165 621.73 336.486C640.617 298.942 622.581 249.911 591.374 218.242Z" fill="#40C0E7"/>
<path d="M334 19.0121L326.382 426L0.181801 95.8607C-4.03985 95.8607 66.663 14.79 66.663 19.0121V375.063C66.663 379.285 70.1296 382.69 74.3512 382.69H149.483C153.739 382.69 157.171 379.285 157.171 375.063V225.247H277.677C281.933 225.247 285.365 221.842 285.365 217.62V160.69C285.365 156.468 281.933 153.063 277.677 153.063H157.171V95.8607H301.874C306.13 95.8607 309.563 92.4558 309.563 88.2337L309.563 19.0121C309.563 19.0121 321.797 8.36968 334 19.0121Z" fill="#40C0E7"/>
<path d="M66.3724 19.7753V0L309.712 19.7753H66.3724Z" fill="#40C0E7"/>
</svg>
