<svg width="512" height="512" viewBox="0 0 512 512" fill="none" xmlns="http://www.w3.org/2000/svg">
<g clip-path="url(#clip0_20_59)">
<path d="M431.018 260.064C410.977 241.288 384.908 232.534 362.361 222.174C358.542 220.427 355.094 218.852 352.167 217.449C343.659 213.389 332.026 202.143 337.037 189.224C340.41 180.489 348.967 176.084 362.51 176.084C366.851 176.084 371.613 176.576 376.698 177.511C394.358 180.784 407.752 187.329 415.342 191.045C416.284 191.513 417.376 191.562 418.368 191.217C419.335 190.848 417.946 127.139 418.368 126.18L512.374 405.254C513.143 403.556 240.383 412.436 238.795 411.403C226.542 403.331 310.217 46.1068 418.368 120.717C413.457 120.717 349.935 125.688 345.172 126.18C318.087 128.936 290.951 136.097 275.92 169.587C266.545 190.43 266.569 213.906 275.945 230.836C285.966 249.316 302.386 257.584 323.172 268.018L325.85 269.371C340.857 276.803 358.839 285.071 370.67 290.509C388.157 298.876 394.631 313.739 390.613 322.696C384.139 337.14 369.827 340.315 345.073 333.351C323.221 327.47 303.056 310.859 297.425 305.913C296.582 305.175 295.466 304.831 294.325 304.978C293.209 305.126 292.216 305.766 291.596 306.676L264.66 347.648C263.643 349.198 263.866 351.24 265.205 352.52C279.17 365.882 290.555 373.658 310.274 383.279C323.544 389.751 342.965 393.639 362.237 393.639C382.378 393.639 431.563 389.013 453.142 346.245C466.908 318.881 453.763 283.146 431.018 260.064Z" fill="#40C0E7"/>
<path d="M243.433 114.857L237.881 411.486L0.132504 170.867C-2.94441 170.867 48.5868 111.78 48.5868 114.857V374.361C48.5868 377.438 51.1133 379.92 54.1903 379.92H108.949C112.051 379.92 114.553 377.438 114.553 374.361V265.169H202.383C205.484 265.169 207.986 262.688 207.986 259.61V218.118C207.986 215.04 205.484 212.559 202.383 212.559H114.553V170.867H220.019C223.121 170.867 225.622 168.386 225.622 165.308L225.622 114.857C225.622 114.857 234.539 107.1 243.433 114.857Z" fill="#40C0E7"/>
<path d="M48.375 115.413V101L225.731 115.413H48.375Z" fill="#40C0E7"/>
</g>
<defs>
<clipPath id="clip0_20_59">
<rect width="512" height="512" fill="white"/>
</clipPath>
</defs>
</svg>
