<svg xmlns="http://www.w3.org/2000/svg" width="221" height="49" viewBox="0 0 221 49" version="1.1"><path d="" stroke="none" fill="#080404" fill-rule="evenodd"/><path d="M 17 5.500 C 17 7.056, 17.567 8, 18.500 8 C 19.433 8, 20 7.056, 20 5.500 C 20 3.944, 19.433 3, 18.500 3 C 17.567 3, 17 3.944, 17 5.500 M 7 8.378 C 7 10.225, 9.652 12.333, 10.959 11.525 C 11.684 11.077, 11.687 10.283, 10.968 8.939 C 9.777 6.715, 7 6.322, 7 8.378 M 27.036 8.456 C 25.120 10.765, 26.853 12.443, 29.076 10.431 C 30.108 9.497, 30.712 8.343, 30.417 7.866 C 29.631 6.593, 28.405 6.807, 27.036 8.456 M 14.225 11.004 C 10.003 13.578, 8.581 17.200, 10.047 21.641 C 12.309 28.496, 19.919 30.235, 25.077 25.077 C 29.832 20.322, 28.555 12.965, 22.538 10.452 C 18.144 8.615, 18.143 8.616, 14.225 11.004 M 15.893 13.359 C 10.852 15.858, 13.021 25, 18.655 25 C 23.806 25, 26.963 17.996, 23.250 14.807 C 20.529 12.470, 18.494 12.070, 15.893 13.359 M 3 18.500 C 3 19.433, 3.944 20, 5.500 20 C 7.056 20, 8 19.433, 8 18.500 C 8 17.567, 7.056 17, 5.500 17 C 3.944 17, 3 17.567, 3 18.500 M 29.736 17.597 C 28.551 18.782, 30.024 20, 32.642 20 C 34.215 20, 35.011 19.529, 34.755 18.750 C 34.294 17.350, 30.788 16.545, 29.736 17.597 M 36.667 19.667 C 36.300 20.033, 36 25.208, 36 31.167 L 36 42 38.500 42 C 40.833 42, 41 41.667, 41 37 C 41 32.333, 41.167 32, 43.500 32 C 45.333 32, 46 31.467, 46 30 C 46 28.533, 45.333 28, 43.500 28 C 41.500 28, 41 27.500, 41 25.500 C 41 23.310, 41.433 23, 44.500 23 C 47.333 23, 48 22.619, 48 21 C 48 19.250, 47.333 19, 42.667 19 C 39.733 19, 37.033 19.300, 36.667 19.667 M 124.655 20.829 C 121.263 24.576, 122.751 29.322, 128.186 32.095 C 131.223 33.644, 132.054 34.608, 131.813 36.302 C 131.501 38.490, 130.136 38.838, 125.536 37.900 C 122.297 37.240, 122.353 40.803, 125.601 42.038 C 131.538 44.296, 137.955 39.942, 136.607 34.571 C 136.270 33.228, 134.086 30.847, 131.754 29.281 C 129.422 27.715, 127.358 25.623, 127.168 24.632 C 126.878 23.127, 127.406 22.882, 130.387 23.139 C 134.528 23.495, 137.419 21.508, 134.992 19.974 C 132.431 18.355, 126.446 18.850, 124.655 20.829 M 7.980 27.524 C 7.284 28.362, 6.985 29.318, 7.314 29.648 C 8.338 30.672, 11 29.143, 11 27.531 C 11 25.573, 9.602 25.569, 7.980 27.524 M 26.533 26.947 C 25.653 28.370, 26.775 30, 28.632 30 C 29.508 30, 30.010 29.297, 29.823 28.333 C 29.434 26.324, 27.437 25.484, 26.533 26.947 M 50 34.667 C 50 41.333, 50.182 42, 52 42 C 53.732 42, 54 41.333, 54 37.019 C 54 32.540, 54.252 31.975, 56.500 31.411 C 57.958 31.045, 59 30.064, 59 29.058 C 59 27.681, 58.094 27.333, 54.500 27.333 L 50 27.333 50 34.667 M 62.455 29.455 C 57.565 34.344, 60.462 42.340, 67.068 42.192 C 68.956 42.150, 71.737 42.096, 73.250 42.073 C 75.982 42.032, 76 41.987, 76 35.075 C 76 28.109, 74.995 25.929, 72.673 27.857 C 71.892 28.504, 70.889 28.542, 69.966 27.958 C 67.494 26.394, 65.023 26.886, 62.455 29.455 M 80.667 27.667 C 80.300 28.033, 80 31.408, 80 35.167 C 80 41.333, 80.195 42, 82 42 C 83.695 42, 84 41.333, 84 37.622 C 84 32.961, 85.869 30.352, 88.487 31.357 C 89.560 31.768, 90 33.400, 90 36.969 C 90 41.333, 90.265 42, 92 42 C 93.660 42, 94 41.333, 94 38.082 C 94 32.940, 94.819 31, 96.990 31 C 98.934 31, 99.965 33.667, 99.986 38.750 C 99.997 41.329, 100.413 42, 102 42 C 103.699 42, 104 41.333, 104 37.565 C 104 35.126, 103.566 31.988, 103.035 30.593 C 101.958 27.759, 98.055 26.310, 95.441 27.773 C 94.333 28.393, 92.725 28.345, 90.847 27.636 C 88.695 26.824, 87.465 26.853, 86.025 27.752 C 84.806 28.513, 83.869 28.597, 83.487 27.980 C 82.785 26.843, 81.619 26.714, 80.667 27.667 M 109.302 28.501 C 104.405 31.931, 106.070 41.198, 111.809 42.458 C 115.313 43.228, 120.144 41.540, 119.471 39.782 C 119.195 39.064, 117.377 38.500, 115.333 38.500 C 113.310 38.500, 111.497 37.943, 111.260 37.250 C 110.956 36.358, 112.289 36, 115.917 36 C 120.371 36, 121 35.747, 121 33.955 C 121 31.194, 116.638 27, 113.768 27 C 112.490 27, 110.481 27.676, 109.302 28.501 M 141.583 29.113 C 139.332 30.884, 138.945 31.881, 139.198 35.263 C 139.610 40.777, 143.608 43.964, 148.021 42.298 L 151 41.174 151 45.087 C 151 48.333, 151.341 49, 153 49 C 154.872 49, 155 48.333, 155 38.559 C 155 28.213, 154.229 25.735, 151.673 27.857 C 150.892 28.504, 149.889 28.542, 148.966 27.958 C 146.651 26.494, 144.482 26.833, 141.583 29.113 M 158.688 27.646 C 158.309 28.024, 158 30.733, 158 33.667 C 158 39.967, 160.654 43.666, 164.342 42.506 C 165.529 42.133, 167.757 41.875, 169.294 41.933 L 172.088 42.039 171.794 34.780 C 171.552 28.801, 171.191 27.462, 169.750 27.187 C 168.274 26.906, 168 27.629, 168 31.804 C 168 40.887, 162.327 41.872, 161.804 32.881 C 161.521 28.024, 160.323 26.011, 158.688 27.646 M 177.635 29.073 C 172.259 33.301, 175.314 42.343, 182.068 42.192 C 183.956 42.150, 186.738 42.096, 188.250 42.073 C 190.982 42.032, 191 41.987, 191 35.075 C 191 28.109, 189.995 25.929, 187.673 27.857 C 186.892 28.504, 185.889 28.542, 184.966 27.958 C 182.661 26.500, 180.485 26.831, 177.635 29.073 M 194.667 27.667 C 194.300 28.033, 194 31.408, 194 35.167 C 194 41.333, 194.195 42, 196 42 C 197.702 42, 198 41.333, 198 37.526 C 198 33.566, 198.345 32.873, 201 31.500 C 202.650 30.647, 204 29.285, 204 28.474 C 204 26.701, 200.878 26.522, 199.200 28.200 C 198.267 29.133, 198 29.133, 198 28.200 C 198 26.917, 195.773 26.561, 194.667 27.667 M 208.500 28.195 C 205.636 29.819, 205.033 31.028, 205.015 35.177 C 204.995 40.111, 208.942 43.433, 213.874 42.633 C 217.927 41.975, 218.442 41.558, 217.342 39.825 C 216.879 39.096, 214.963 38.500, 213.083 38.500 C 211.204 38.500, 209.479 37.938, 209.250 37.250 C 208.953 36.359, 210.294 36, 213.917 36 C 218.672 36, 219 35.839, 219 33.500 C 219 28.417, 213.241 25.507, 208.500 28.195 M 17.386 30.437 C 16.598 32.490, 17.708 35.299, 18.993 34.504 C 19.547 34.162, 20 33.035, 20 32 C 20 29.536, 18.155 28.433, 17.386 30.437 M 65.200 32.200 C 62.721 34.679, 64.549 39, 68.078 39 C 70.953 39, 72.460 36.304, 71.168 33.470 C 69.966 30.831, 67.165 30.235, 65.200 32.200 M 111.500 32 C 111.138 32.585, 112.176 33, 114 33 C 115.824 33, 116.862 32.585, 116.500 32 C 116.160 31.450, 115.035 31, 114 31 C 112.965 31, 111.840 31.450, 111.500 32 M 143.423 33.450 C 142.627 36.624, 144.553 39.207, 147.412 38.798 C 149.075 38.561, 149.500 37.787, 149.500 35 C 149.500 31.936, 149.162 31.461, 146.785 31.187 C 144.579 30.933, 143.948 31.357, 143.423 33.450 M 179.423 33.450 C 178.627 36.624, 180.553 39.207, 183.412 38.798 C 185.075 38.561, 185.500 37.787, 185.500 35 C 185.500 31.936, 185.162 31.461, 182.785 31.187 C 180.579 30.933, 179.948 31.357, 179.423 33.450 M 209.500 32 C 209.138 32.585, 210.176 33, 212 33 C 213.824 33, 214.862 32.585, 214.500 32 C 214.160 31.450, 213.035 31, 212 31 C 210.965 31, 209.840 31.450, 209.500 32" stroke="none" fill="#040404" fill-rule="evenodd"/></svg>