<svg width="498" height="467" viewBox="0 0 498 467" fill="none" xmlns="http://www.w3.org/2000/svg">
    <g clip-path="url(#clip0_6_2)">
        <path
            d="M422.028 4.67001H83.4421C73.8008 4.67001 65.985 12.8709 65.985 22.9872V447.126C65.985 457.243 73.8008 465.443 83.4421 465.443H422.028C431.669 465.443 439.485 457.243 439.485 447.126V22.9872C439.485 12.8709 431.669 4.67001 422.028 4.67001Z"
            fill="white" />
        <path
            d="M422.55 467H82.9198C77.443 466.983 72.1952 464.701 68.3225 460.653C64.4497 456.604 62.2667 451.119 62.25 445.394V21.5726C62.2667 15.8509 64.4508 10.3689 68.3244 6.32611C72.1981 2.28329 77.4459 0.00870892 82.9198 0H422.55C428.024 0.00870892 433.272 2.28329 437.146 6.32611C441.019 10.3689 443.203 15.8509 443.22 21.5726V445.394C443.203 451.119 441.02 456.604 437.147 460.653C433.275 464.701 428.027 466.983 422.55 467ZM82.9198 6.60724C79.1198 6.60723 75.4749 8.18288 72.7849 10.9885C70.0949 13.7941 68.5794 17.6005 68.5711 21.5726V445.394C68.5794 449.369 70.0938 453.179 72.783 455.99C75.4721 458.801 79.1169 460.384 82.9198 460.393H422.55C426.353 460.384 429.998 458.801 432.687 455.99C435.376 453.179 436.891 449.369 436.899 445.394V21.5726C436.891 17.6005 435.375 13.7941 432.685 10.9885C429.995 8.18288 426.35 6.60723 422.55 6.60724H82.9198Z"
            fill="#093F68" />
        <path
            d="M83.4406 4.67001H422.029C426.659 4.67001 431.099 6.52184 434.372 9.81811C437.646 13.1144 439.485 17.5851 439.485 22.2467V52.9267H65.985V22.2467C65.985 17.5851 67.824 13.1144 71.0976 9.81811C74.3712 6.52184 78.8111 4.67001 83.4406 4.67001Z"
            fill="#68E1FD" />
        <path
            d="M440.059 56.04H65.4105C64.5723 56.04 63.7684 55.6969 63.1757 55.0863C62.583 54.4756 62.25 53.6474 62.25 52.7838V21.2633C62.2667 15.6236 64.4508 10.2202 68.3244 6.23539C72.1981 2.25054 77.4459 0.00858403 82.9198 0H422.55C428.024 0.00858403 433.272 2.25054 437.146 6.23539C441.019 10.2202 443.203 15.6236 443.22 21.2633V52.7838C443.22 53.6474 442.887 54.4756 442.294 55.0863C441.702 55.6969 440.898 56.04 440.059 56.04ZM68.5711 49.5275H436.899V21.2633C436.891 17.3481 435.375 13.5963 432.685 10.8309C429.995 8.06553 426.35 6.51248 422.55 6.51249H82.9198C79.1198 6.51248 75.4749 8.06553 72.7849 10.8309C70.0949 13.5963 68.5794 17.3481 68.5711 21.2633V49.5275Z"
            fill="#093F68" />
        <path
            d="M97.7325 35.8033C102.202 35.8033 105.825 31.9701 105.825 27.2417C105.825 22.5132 102.202 18.68 97.7325 18.68C93.2631 18.68 89.64 22.5132 89.64 27.2417C89.64 31.9701 93.2631 35.8033 97.7325 35.8033Z"
            fill="#093F68" />
        <path
            d="M118.898 35.8033C123.367 35.8033 126.99 31.9701 126.99 27.2417C126.99 22.5132 123.367 18.68 118.898 18.68C114.428 18.68 110.805 22.5132 110.805 27.2417C110.805 31.9701 114.428 35.8033 118.898 35.8033Z"
            fill="#093F68" />
        <path
            d="M140.062 35.8033C144.532 35.8033 148.155 31.9701 148.155 27.2417C148.155 22.5132 144.532 18.68 140.062 18.68C135.593 18.68 131.97 22.5132 131.97 27.2417C131.97 31.9701 135.593 35.8033 140.062 35.8033Z"
            fill="#093F68" />
        <path
            d="M190.344 160.337H16.3261C12.1226 160.337 8.715 163.923 8.715 168.348V220.819C8.715 225.243 12.1226 228.83 16.3261 228.83H190.344C194.547 228.83 197.955 225.243 197.955 220.819V168.348C197.955 163.923 194.547 160.337 190.344 160.337Z"
            fill="#FFBC0E" />
        <path
            d="M191.111 231.765H16.4722C13.6442 231.721 10.9445 230.521 8.95052 228.419C6.9565 226.317 5.82644 223.481 5.802 220.517V168.117C5.80199 165.113 6.93846 162.232 8.9623 160.105C10.9861 157.978 13.7322 156.779 16.5985 156.77H191.111C193.977 156.779 196.723 157.978 198.747 160.105C200.771 162.232 201.907 165.113 201.907 168.117V220.517C201.882 223.503 200.735 226.359 198.713 228.465C196.692 230.57 193.96 231.756 191.111 231.765ZM16.4722 163.287C15.2804 163.296 14.1403 163.798 13.3005 164.684C12.4607 165.571 11.9894 166.769 11.9895 168.018V220.517C11.9894 221.766 12.4607 222.964 13.3005 223.85C14.1403 224.737 15.2804 225.239 16.4722 225.248H191.111C192.302 225.239 193.442 224.737 194.282 223.85C195.122 222.964 195.593 221.766 195.593 220.517V168.117C195.593 166.868 195.122 165.67 194.282 164.784C193.442 163.897 192.302 163.395 191.111 163.386L16.4722 163.287Z"
            fill="#093F68" />
        <path
            d="M29.6995 194.317C29.69 192.051 30.0973 189.805 30.8991 187.701C31.6512 185.768 32.7802 184.022 34.2138 182.573C35.6607 181.116 37.3807 179.989 39.2648 179.265C43.4065 177.765 47.9085 177.765 52.0501 179.265C53.9342 179.989 55.6543 181.116 57.1011 182.573C58.5347 184.022 59.6637 185.768 60.4159 187.701C62.0141 192.044 62.0141 196.855 60.4159 201.198C59.6801 203.139 58.5489 204.889 57.1011 206.325C55.6543 207.783 53.9342 208.909 52.0501 209.633C47.9085 211.133 43.4065 211.133 39.2648 209.633C37.3807 208.909 35.6607 207.783 34.2138 206.325C32.7661 204.889 31.6348 203.139 30.8991 201.198C30.0647 199.011 29.6569 196.672 29.6995 194.317ZM36.4552 194.317C36.4382 195.683 36.6629 197.04 37.1181 198.32C37.496 199.554 38.1324 200.684 38.9807 201.628C39.7936 202.535 40.7844 203.246 41.885 203.712C44.3068 204.726 47.0081 204.726 49.43 203.712C50.5305 203.246 51.5214 202.535 52.3343 201.628C53.1826 200.684 53.8189 199.554 54.1968 198.32C55.0813 195.743 55.0813 192.924 54.1968 190.347C53.806 189.119 53.1712 187.992 52.3343 187.039C51.5214 186.133 50.5305 185.422 49.43 184.955C47 183.986 44.315 183.986 41.885 184.955C40.7844 185.422 39.7936 186.133 38.9807 187.039C38.1438 187.992 37.509 189.119 37.1181 190.347C36.6682 191.617 36.4435 192.962 36.4552 194.317Z"
            fill="#093F68" />
        <path
            d="M68.6238 194.317C68.6143 192.051 69.0216 189.805 69.8234 187.701C70.5756 185.768 71.7046 184.022 73.1382 182.573C74.5851 181.116 76.305 179.989 78.1891 179.265C82.2827 177.803 86.7231 177.803 90.8166 179.265C92.7008 179.989 94.4208 181.116 95.8677 182.573C97.2444 184.038 98.319 185.783 99.0245 187.701C100.623 192.044 100.623 196.855 99.0245 201.198C98.335 203.124 97.2584 204.873 95.8677 206.325C94.4208 207.783 92.7008 208.909 90.8166 209.633C86.7231 211.095 82.2827 211.095 78.1891 209.633C76.305 208.909 74.5851 207.783 73.1382 206.325C71.6904 204.889 70.5592 203.139 69.8234 201.198C68.9891 199.011 68.5812 196.672 68.6238 194.317ZM75.3795 194.317C75.3625 195.683 75.5873 197.04 76.0425 198.32C76.4204 199.554 77.0568 200.684 77.905 201.628C78.7179 202.535 79.7088 203.246 80.8094 203.712C81.9991 204.231 83.2775 204.49 84.566 204.473C85.8645 204.486 87.1524 204.227 88.3543 203.712C89.4548 203.246 90.4458 202.535 91.2586 201.628C92.1069 200.684 92.7433 199.554 93.1212 198.32C93.963 195.736 93.963 192.932 93.1212 190.347C92.7303 189.119 92.0955 187.992 91.2586 187.039C90.4458 186.133 89.4548 185.422 88.3543 184.955C87.1502 184.451 85.8624 184.204 84.566 184.227C83.2796 184.2 82.0014 184.448 80.8094 184.955C79.7088 185.422 78.7179 186.133 77.905 187.039C77.0681 187.992 76.4334 189.119 76.0425 190.347C75.5494 191.609 75.2818 192.954 75.2533 194.317H75.3795Z"
            fill="#093F68" />
        <path
            d="M109.126 178.835H120.112C121.575 178.821 123.035 178.965 124.469 179.265C125.743 179.519 126.955 180.036 128.036 180.787C129.073 181.507 129.911 182.499 130.467 183.665C131.103 185.092 131.406 186.656 131.351 188.23C131.393 189.796 131.113 191.353 130.53 192.795C130.014 193.966 129.22 194.98 128.226 195.739C127.174 196.487 125.995 197.015 124.753 197.294C123.319 197.597 121.859 197.742 120.397 197.724H115.661V209.832H109.126V178.835ZM115.661 192.067H119.986C120.56 192.071 121.132 192.004 121.691 191.869C122.203 191.772 122.694 191.582 123.143 191.307C123.581 191.023 123.94 190.624 124.185 190.149C124.486 189.596 124.628 188.965 124.595 188.329C124.62 187.656 124.432 186.993 124.059 186.444C123.716 185.956 123.259 185.569 122.733 185.319C122.155 185.041 121.535 184.873 120.902 184.823H119.007H115.661V192.067Z"
            fill="#093F68" />
        <path
            d="M154.175 186.411C153.617 185.686 152.872 185.147 152.028 184.856C151.208 184.543 150.344 184.375 149.471 184.36C148.972 184.351 148.474 184.406 147.988 184.525C147.493 184.631 147.015 184.81 146.567 185.054C146.147 185.303 145.782 185.641 145.494 186.047C145.213 186.486 145.069 187.007 145.083 187.535C145.059 187.955 145.139 188.374 145.316 188.751C145.493 189.128 145.761 189.45 146.094 189.686C146.864 190.247 147.717 190.672 148.619 190.943C149.629 191.307 150.703 191.671 151.776 192.001C152.881 192.364 153.941 192.864 154.933 193.49C155.944 194.147 156.806 195.028 157.458 196.07C158.183 197.384 158.534 198.888 158.468 200.404C158.504 201.958 158.19 203.499 157.553 204.903C156.978 206.194 156.124 207.326 155.059 208.211C153.976 209.079 152.743 209.719 151.429 210.097C148.239 210.982 144.872 210.879 141.737 209.799C140.03 209.131 138.464 208.12 137.128 206.822L141.769 201.462C142.436 202.387 143.301 203.135 144.294 203.646C145.279 204.143 146.358 204.403 147.451 204.407C147.993 204.406 148.533 204.339 149.061 204.208C149.57 204.085 150.059 203.884 150.513 203.613C150.927 203.368 151.283 203.029 151.555 202.62C151.823 202.187 151.965 201.681 151.965 201.165C151.98 200.734 151.892 200.306 151.71 199.919C151.528 199.533 151.258 199.199 150.924 198.948C150.142 198.354 149.28 197.886 148.366 197.559L145.02 196.434C143.85 196.07 142.727 195.559 141.674 194.912C140.655 194.268 139.782 193.399 139.117 192.365C138.372 191.12 138.009 189.665 138.075 188.197C138.044 186.682 138.369 185.182 139.022 183.83C139.632 182.6 140.495 181.527 141.548 180.688C142.621 179.816 143.842 179.165 145.146 178.769C146.519 178.343 147.945 178.131 149.377 178.14C151.014 178.14 152.642 178.397 154.207 178.901C155.769 179.404 157.211 180.25 158.437 181.382L154.175 186.411Z"
            fill="#093F68" />
        <path
            d="M170.18 206.061C170.188 205.515 170.295 204.976 170.496 204.473C170.687 203.991 170.966 203.553 171.318 203.184C171.67 202.815 172.088 202.522 172.548 202.323C173.019 202.122 173.523 202.021 174.032 202.025C174.55 202.021 175.065 202.122 175.547 202.323C176.009 202.518 176.428 202.811 176.778 203.183C177.123 203.558 177.401 203.995 177.599 204.473C177.79 204.978 177.887 205.517 177.883 206.061C177.887 206.593 177.79 207.122 177.599 207.615C177.401 208.093 177.123 208.53 176.778 208.906C176.428 209.277 176.009 209.57 175.547 209.766C175.065 209.966 174.55 210.067 174.032 210.063C173.523 210.067 173.019 209.966 172.548 209.766C172.088 209.566 171.67 209.274 171.318 208.905C170.966 208.536 170.687 208.098 170.496 207.615C170.295 207.124 170.188 206.596 170.18 206.061ZM177.157 199.444H170.843V178.835H177.157V199.444Z"
            fill="#093F68" />
        <path
            d="M197.751 410.96H12.6224C10.9829 410.963 9.37452 410.487 7.97598 409.586C6.57745 408.684 5.44345 407.391 4.69984 405.851C3.95624 404.311 3.63212 402.584 3.76352 400.862C3.89492 399.14 4.47668 397.489 5.4442 396.094L98.0399 262.24C98.8634 261.052 99.9413 260.086 101.186 259.42C102.43 258.754 103.807 258.407 105.202 258.407C106.598 258.407 107.974 258.754 109.219 259.42C110.464 260.086 111.541 261.052 112.365 262.24L204.961 396.094C205.93 397.492 206.512 399.145 206.642 400.87C206.772 402.595 206.445 404.325 205.698 405.866C204.951 407.407 203.812 408.699 202.409 409.599C201.006 410.498 199.393 410.969 197.751 410.96Z"
            fill="#FFBC0E" />
        <path
            d="M198.275 414.073H12.0983C9.86664 414.078 7.67741 413.436 5.77366 412.219C3.86991 411.001 2.32616 409.256 1.3138 407.177C0.301442 405.097 -0.139918 402.766 0.038769 400.44C0.217456 398.114 1.00919 395.886 2.32604 394.002L95.446 260.458C96.5706 258.857 98.0397 257.555 99.7347 256.658C101.43 255.761 103.303 255.293 105.203 255.293C107.102 255.293 108.975 255.761 110.67 256.658C112.365 257.555 113.834 258.857 114.959 260.458L208.079 394.002C209.396 395.886 210.188 398.114 210.366 400.44C210.545 402.766 210.104 405.097 209.091 407.177C208.079 409.256 206.535 411.001 204.631 412.219C202.728 413.436 200.538 414.078 198.307 414.073H198.275ZM105.187 261.842C104.276 261.827 103.375 262.044 102.562 262.475C101.749 262.905 101.049 263.537 100.521 264.314L7.4013 397.858C6.77215 398.758 6.39378 399.822 6.30818 400.933C6.22258 402.044 6.4331 403.158 6.91637 404.152C7.39964 405.145 8.13676 405.979 9.04591 406.561C9.95507 407.143 11.0007 407.45 12.0667 407.449H198.275C199.341 407.45 200.387 407.143 201.296 406.561C202.205 405.979 202.942 405.145 203.426 404.152C203.909 403.158 204.119 402.044 204.034 400.933C203.948 399.822 203.57 398.758 202.941 397.858L109.821 264.347C109.294 263.574 108.599 262.944 107.794 262.508C106.988 262.073 106.094 261.844 105.187 261.842Z"
            fill="#093F68" />
        <path
            d="M65.5273 370.449H48.555V363.529L64.4413 339.353H73.4395V363.529H78.435V370.449H73.4395V378.27H65.5273V370.449ZM65.5273 350.122L56.9015 363.529H65.6514L65.5273 350.122Z"
            fill="#093F68" />
        <path
            d="M87.1513 358.794C87.1448 356.149 87.3509 353.508 87.767 350.905C88.1368 348.355 88.8973 345.897 90.0147 343.641C91.0491 341.479 92.5537 339.649 94.3869 338.324C96.5563 336.957 98.9995 336.24 101.484 336.24C103.968 336.24 106.412 336.957 108.581 338.324C110.411 339.673 111.905 341.527 112.922 343.711C114.04 345.966 114.8 348.424 115.17 350.975C115.99 356.193 115.99 361.534 115.17 366.753C114.79 369.3 114.03 371.756 112.922 374.017C111.871 376.165 110.37 377.991 108.55 379.334C106.374 380.679 103.934 381.383 101.453 381.383C98.9726 381.383 96.5319 380.679 94.3561 379.334C92.5363 377.991 91.0353 376.165 89.9839 374.017C88.8761 371.756 88.1161 369.3 87.7363 366.753C87.3281 364.126 87.1323 361.462 87.1513 358.794ZM95.3106 358.794C95.3106 359.941 95.3106 361.297 95.4645 362.895C95.5501 364.463 95.7982 366.015 96.2035 367.518C96.5439 368.91 97.1657 370.195 98.0201 371.271C98.9484 372.274 100.184 372.833 101.469 372.833C102.753 372.833 103.989 372.274 104.917 371.271C105.781 370.197 106.413 368.913 106.764 367.518C107.17 366.015 107.418 364.463 107.503 362.895C107.503 361.297 107.503 359.941 107.503 358.794C107.503 357.647 107.503 356.257 107.503 354.658C107.415 353.091 107.167 351.54 106.764 350.036C106.399 348.648 105.769 347.366 104.917 346.283C103.978 345.303 102.747 344.759 101.469 344.759C100.19 344.759 98.9588 345.303 98.0201 346.283C97.178 347.368 96.5578 348.65 96.2035 350.036C95.8009 351.54 95.5529 353.091 95.4645 354.658C95.3722 356.257 95.3106 357.613 95.3106 358.794Z"
            fill="#093F68" />
        <path
            d="M142.18 370.449H124.5V363.529L141.048 339.353H150.421V363.529H155.625V370.449H150.421V378.27H142.18V370.449ZM142.18 350.122L133.162 363.529H142.276L142.18 350.122Z"
            fill="#093F68" />
        <path d="M494.265 410.96H231.57V169.853L269.539 121.42H494.265V410.96Z" fill="#68E1FD" />
        <path
            d="M495.006 412.517H232.232C231.396 412.517 230.594 412.17 230.003 411.552C229.412 410.935 229.08 410.097 229.08 409.224V169.713C229.079 168.943 229.335 168.198 229.805 167.605L267.628 119.492C267.924 119.12 268.295 118.822 268.715 118.617C269.134 118.412 269.592 118.306 270.055 118.307H494.848C495.684 118.307 496.486 118.654 497.077 119.271C497.668 119.889 498 120.726 498 121.6V409.224C498.001 410.069 497.691 410.883 497.133 411.496C496.576 412.109 495.814 412.474 495.006 412.517ZM235.384 405.93H491.854V124.893H271.694L235.384 170.997V405.93Z"
            fill="#093F68" />
        <path
            d="M285.752 247.51C285.132 247.514 284.526 247.325 284.01 246.968C283.493 246.61 283.091 246.101 282.853 245.504C282.616 244.907 282.554 244.25 282.676 243.616C282.798 242.982 283.098 242.401 283.537 241.946L323.361 200.199C323.945 199.593 324.735 199.253 325.559 199.253C326.383 199.253 327.173 199.593 327.758 200.199C328.05 200.502 328.282 200.862 328.44 201.258C328.598 201.655 328.68 202.08 328.68 202.51C328.68 202.939 328.598 203.365 328.44 203.761C328.282 204.158 328.05 204.517 327.758 204.82L287.966 246.566C287.674 246.868 287.329 247.106 286.949 247.268C286.569 247.43 286.162 247.512 285.752 247.51Z"
            fill="#093F68" />
        <path
            d="M325.588 247.51C325.175 247.508 324.767 247.421 324.386 247.253C324.006 247.086 323.661 246.842 323.372 246.534L283.522 204.801C283.233 204.498 283.004 204.138 282.848 203.743C282.693 203.347 282.614 202.924 282.615 202.496C282.616 202.069 282.699 201.646 282.857 201.252C283.015 200.857 283.246 200.5 283.537 200.198C283.828 199.897 284.173 199.659 284.553 199.497C284.932 199.334 285.338 199.252 285.748 199.253C286.158 199.255 286.564 199.341 286.942 199.505C287.321 199.67 287.664 199.911 287.953 200.215L327.772 241.948C328.354 242.557 328.68 243.382 328.68 244.241C328.68 245.1 328.354 245.925 327.772 246.534C327.196 247.147 326.411 247.498 325.588 247.51Z"
            fill="#093F68" />
        <path
            d="M407.882 247.51C407.015 247.498 406.188 247.147 405.581 246.534C404.969 245.925 404.625 245.1 404.625 244.241C404.625 243.382 404.969 242.557 405.581 241.948L447.557 200.215C447.861 199.911 448.223 199.67 448.622 199.505C449.02 199.341 449.448 199.255 449.879 199.253C450.311 199.252 450.739 199.334 451.139 199.497C451.538 199.659 451.902 199.897 452.208 200.198C452.515 200.5 452.758 200.857 452.925 201.252C453.092 201.646 453.178 202.069 453.18 202.496C453.182 202.924 453.098 203.347 452.934 203.743C452.77 204.138 452.529 204.498 452.225 204.801L410.249 246.534C409.94 246.845 409.572 247.092 409.165 247.26C408.759 247.427 408.322 247.512 407.882 247.51Z"
            fill="#093F68" />
        <path
            d="M449.907 247.51C449.472 247.508 449.042 247.421 448.641 247.254C448.24 247.086 447.877 246.842 447.573 246.534L405.597 204.816C405.289 204.514 405.045 204.154 404.878 203.758C404.711 203.362 404.625 202.937 404.625 202.508C404.625 202.078 404.711 201.653 404.878 201.257C405.045 200.861 405.289 200.501 405.597 200.199C406.213 199.593 407.046 199.253 407.915 199.253C408.783 199.253 409.616 199.593 410.232 200.199L452.208 241.917C452.671 242.372 452.987 242.953 453.116 243.586C453.244 244.22 453.179 244.876 452.929 245.473C452.678 246.069 452.254 246.578 451.71 246.935C451.166 247.293 450.527 247.481 449.874 247.477L449.907 247.51Z"
            fill="#093F68" />
        <path
            d="M346.11 294.21H382.215V326.992C382.215 331.922 380.315 336.65 376.932 340.136C373.55 343.622 368.962 345.58 364.178 345.58C359.395 345.58 354.807 343.622 351.425 340.136C348.042 336.65 346.142 331.922 346.142 326.992V294.21H346.11Z"
            fill="#F56132" />
        <path
            d="M362.902 348.693C357.461 348.684 352.244 346.329 348.396 342.144C344.548 337.958 342.383 332.284 342.375 326.364V292.888C342.375 292 342.699 291.148 343.276 290.521C343.854 289.893 344.636 289.54 345.453 289.54H380.382C381.199 289.54 381.981 289.893 382.559 290.521C383.136 291.148 383.46 292 383.46 292.888V326.364C383.452 332.289 381.282 337.969 377.428 342.155C373.573 346.342 368.349 348.693 362.902 348.693ZM348.53 296.101V326.23C348.53 330.377 350.044 334.353 352.74 337.285C355.435 340.217 359.09 341.864 362.902 341.864C366.714 341.864 370.369 340.217 373.065 337.285C375.76 334.353 377.274 330.377 377.274 326.23V296.101H348.53Z"
            fill="#093F68" />
        <path
            d="M363.54 322.23C362.88 322.23 362.246 321.88 361.779 321.258C361.312 320.636 361.05 319.791 361.05 318.911V292.859C361.05 291.979 361.312 291.134 361.779 290.512C362.246 289.89 362.88 289.54 363.54 289.54C364.2 289.54 364.834 289.89 365.301 290.512C365.768 291.134 366.03 291.979 366.03 292.859V318.911C366.03 319.791 365.768 320.636 365.301 321.258C364.834 321.88 364.2 322.23 363.54 322.23Z"
            fill="#093F68" />
        <path
            d="M450.026 297.323H285.769C284.932 297.323 284.13 296.913 283.539 296.184C282.947 295.454 282.615 294.464 282.615 293.432C282.615 292.4 282.947 291.41 283.539 290.68C284.13 289.95 284.932 289.54 285.769 289.54H450.026C450.863 289.54 451.665 289.95 452.256 290.68C452.848 291.41 453.18 292.4 453.18 293.432C453.18 294.464 452.848 295.454 452.256 296.184C451.665 296.913 450.863 297.323 450.026 297.323Z"
            fill="#093F68" />
        <path
            d="M252.071 90.2867H96.5294C95.6928 90.2867 94.8905 89.9587 94.2989 89.3748C93.7074 88.7909 93.375 87.999 93.375 87.1733C93.375 86.3476 93.7074 85.5557 94.2989 84.9719C94.8905 84.388 95.6928 84.06 96.5294 84.06H252.071C252.907 84.06 253.71 84.388 254.301 84.9719C254.893 85.5557 255.225 86.3476 255.225 87.1733C255.225 87.999 254.893 88.7909 254.301 89.3748C253.71 89.9587 252.907 90.2867 252.071 90.2867Z"
            fill="#DFEAEF" />
        <path d="M231.57 168.12H268.517L268.92 121.42L231.57 168.12Z" fill="white" />
        <path
            d="M269.294 172.79H232.199C231.604 172.792 231.02 172.613 230.518 172.276C230.017 171.939 229.617 171.457 229.367 170.888C229.12 170.324 229.03 169.698 229.107 169.083C229.184 168.468 229.425 167.888 229.803 167.411L267.147 119.494C267.556 118.974 268.107 118.599 268.725 118.422C269.343 118.244 269.999 118.272 270.601 118.502C271.204 118.732 271.724 119.152 272.092 119.705C272.46 120.258 272.656 120.918 272.655 121.593L272.25 169.543C272.244 170.38 271.934 171.182 271.384 171.785C270.834 172.389 270.087 172.748 269.294 172.79ZM238.796 166.23H266.213L266.524 130.809L238.796 166.23Z"
            fill="#093F68" />
        <path
            d="M316.852 90.2867H285.727C284.902 90.2867 284.11 89.9587 283.527 89.3748C282.943 88.7909 282.615 87.999 282.615 87.1733C282.615 86.3476 282.943 85.5557 283.527 84.9719C284.11 84.388 284.902 84.06 285.727 84.06H316.852C317.678 84.06 318.47 84.388 319.053 84.9719C319.637 85.5557 319.965 86.3476 319.965 87.1733C319.965 87.999 319.637 88.7909 319.053 89.3748C318.47 89.9587 317.678 90.2867 316.852 90.2867Z"
            fill="#DFEAEF" />
        <path
            d="M191.069 132.317H96.5264C95.6906 132.317 94.889 131.907 94.298 131.177C93.707 130.447 93.375 129.457 93.375 128.425C93.375 127.393 93.707 126.403 94.298 125.673C94.889 124.943 95.6906 124.533 96.5264 124.533H191.069C191.904 124.533 192.706 124.943 193.297 125.673C193.888 126.403 194.22 127.393 194.22 128.425C194.22 129.457 193.888 130.447 193.297 131.177C192.706 131.907 191.904 132.317 191.069 132.317Z"
            fill="#DFEAEF" />
        <path
            d="M191.102 275.53H158.743C157.916 275.53 157.123 275.202 156.538 274.618C155.953 274.034 155.625 273.242 155.625 272.417C155.625 271.591 155.953 270.799 156.538 270.215C157.123 269.631 157.916 269.303 158.743 269.303H191.102C191.929 269.303 192.722 269.631 193.307 270.215C193.892 270.799 194.22 271.591 194.22 272.417C194.22 273.242 193.892 274.034 193.307 274.618C192.722 275.202 191.929 275.53 191.102 275.53Z"
            fill="#DFEAEF" />
        <path
            d="M191.235 309.777H171.06C170.268 309.777 169.509 309.449 168.949 308.865C168.389 308.281 168.075 307.489 168.075 306.663C168.075 305.838 168.389 305.046 168.949 304.462C169.509 303.878 170.268 303.55 171.06 303.55H191.235C192.027 303.55 192.786 303.878 193.346 304.462C193.906 305.046 194.22 305.838 194.22 306.663C194.22 307.489 193.906 308.281 193.346 308.865C192.786 309.449 192.027 309.777 191.235 309.777Z"
            fill="#DFEAEF" />
        <path
            d="M398.966 90.2867H345.544C344.703 90.2867 343.897 89.9587 343.303 89.3748C342.709 88.7909 342.375 87.999 342.375 87.1733C342.375 86.3476 342.709 85.5557 343.303 84.9719C343.897 84.388 344.703 84.06 345.544 84.06H398.966C399.807 84.06 400.613 84.388 401.207 84.9719C401.801 85.5557 402.135 86.3476 402.135 87.1733C402.135 87.999 401.801 88.7909 401.207 89.3748C400.613 89.9587 399.807 90.2867 398.966 90.2867Z"
            fill="#DFEAEF" />
    </g>
    <defs>
        <clipPath id="clip0_6_2">
            <rect width="498" height="467" fill="white" />
        </clipPath>
    </defs>
</svg>